<svg width="296" height="32" viewBox="0 0 296 32" fill="none" xmlns="http://www.w3.org/2000/svg">
<line x1="4.37114e-08" y1="31.5" x2="296" y2="31.5" stroke="#5E49FF"/>
<path d="M34.114 10.7V9.622H32.994V17H34.184V12.548C34.184 11.498 35.122 10.588 36.466 10.574V9.468C35.43 9.468 34.59 10.014 34.114 10.7ZM43.2917 9.622V11.05C42.7317 10.098 41.7657 9.538 40.5197 9.538C38.4337 9.538 36.8937 11.12 36.8937 13.304C36.8937 15.516 38.4197 17.154 40.5197 17.154C41.7657 17.154 42.7317 16.566 43.2917 15.586V17H44.3977V9.622H43.2917ZM40.6597 16.104C39.1757 16.104 38.0697 14.914 38.0697 13.304C38.0697 11.722 39.1757 10.518 40.6597 10.518C42.1997 10.518 43.2497 11.666 43.2497 13.304C43.2497 14.956 42.1857 16.104 40.6597 16.104ZM49.6544 7.564H50.1024V6.612H49.6124C47.9184 6.612 46.9524 7.62 46.9524 9.314V9.622H45.6084V10.644H46.9524V17H48.1424V10.644H50.0744V9.622H48.1424V9.202C48.1424 8.152 48.7164 7.564 49.6544 7.564ZM56.8952 9.622V11.05C56.3352 10.098 55.3692 9.538 54.1232 9.538C52.0372 9.538 50.4972 11.12 50.4972 13.304C50.4972 15.516 52.0232 17.154 54.1232 17.154C55.3692 17.154 56.3352 16.566 56.8952 15.586V17H58.0012V9.622H56.8952ZM54.2632 16.104C52.7792 16.104 51.6732 14.914 51.6732 13.304C51.6732 11.722 52.7792 10.518 54.2632 10.518C55.8032 10.518 56.8532 11.666 56.8532 13.304C56.8532 14.956 55.7892 16.104 54.2632 16.104ZM60.682 13.752H66.814C66.828 13.612 66.842 13.36 66.842 13.15C66.842 11.204 65.428 9.454 63.202 9.454C61.116 9.454 59.478 11.176 59.478 13.318C59.478 15.516 61.018 17.168 63.286 17.168C65.036 17.168 66.058 16.412 66.604 15.362L65.568 14.732C65.204 15.586 64.532 16.048 63.328 16.048C61.97 16.048 60.892 15.124 60.682 13.752ZM60.696 12.716C60.92 11.316 61.998 10.49 63.244 10.49C64.476 10.49 65.442 11.33 65.624 12.716H60.696ZM68.3085 17H69.4985V6.766H68.3085V17ZM80.1607 9.468C78.8307 9.468 77.9207 10.168 77.5427 10.966C77.1367 10.014 76.2967 9.468 75.0227 9.468C73.8887 9.468 73.0347 10.028 72.5867 10.714V9.622H71.4667V17H72.6567V12.352C72.6707 11.498 73.4547 10.532 74.6867 10.532C75.9187 10.518 76.6607 11.4 76.6607 12.66V17H77.8507V12.352C77.8787 11.498 78.6487 10.532 79.8947 10.532C81.1267 10.518 81.8687 11.414 81.8687 12.66V17H83.0587V12.45C83.0587 10.728 82.0087 9.468 80.1607 9.468ZM90.8971 9.622V11.05C90.3371 10.098 89.3711 9.538 88.1251 9.538C86.0391 9.538 84.4991 11.12 84.4991 13.304C84.4991 15.516 86.0251 17.154 88.1251 17.154C89.3711 17.154 90.3371 16.566 90.8971 15.586V17H92.0031V9.622H90.8971ZM88.2651 16.104C86.7811 16.104 85.6751 14.914 85.6751 13.304C85.6751 11.722 86.7811 10.518 88.2651 10.518C89.8051 10.518 90.8551 11.666 90.8551 13.304C90.8551 14.956 89.7911 16.104 88.2651 16.104ZM94.8239 16.02L99.0659 10.532V9.622H93.5499V10.602H97.6099L93.3539 16.132V17H99.2199V16.02H94.8239ZM101.359 16.02L105.601 10.532V9.622H100.085V10.602H104.145L99.8891 16.132V17H105.755V16.02H101.359ZM112.318 9.622V14.256C112.304 15.194 111.464 16.09 110.218 16.09C108.958 16.104 108.16 15.278 108.16 14.032V9.622H106.97V14.172C106.97 15.922 108.02 17.154 109.91 17.154C111.002 17.154 111.884 16.636 112.374 15.95V17H113.508V9.622H112.318ZM118.808 17.154C120.6 17.154 121.818 16.076 122.196 14.872L121.132 14.438C120.824 15.46 119.97 16.09 118.836 16.09C117.338 16.09 116.218 14.956 116.218 13.318C116.218 11.68 117.338 10.546 118.822 10.546C119.942 10.546 120.782 11.176 121.09 12.198L122.154 11.778C121.776 10.546 120.572 9.482 118.794 9.482C116.61 9.482 115.014 11.134 115.014 13.318C115.014 15.53 116.624 17.154 118.808 17.154ZM129.465 9.622V11.05C128.905 10.098 127.939 9.538 126.693 9.538C124.607 9.538 123.067 11.12 123.067 13.304C123.067 15.516 124.593 17.154 126.693 17.154C127.939 17.154 128.905 16.566 129.465 15.586V17H130.571V9.622H129.465ZM126.833 16.104C125.349 16.104 124.243 14.914 124.243 13.304C124.243 11.722 125.349 10.518 126.833 10.518C128.373 10.518 129.423 11.666 129.423 13.304C129.423 14.956 128.359 16.104 126.833 16.104ZM135.534 17H136.612V15.95H135.744C134.792 15.95 134.274 15.39 134.274 14.396V10.644H136.5V9.622H134.316V7.732H133.168V8.95C133.168 9.398 132.958 9.622 132.51 9.622H131.74V10.644H133.084V14.522C133.084 16.048 133.938 17 135.534 17ZM140.903 17.154C143.143 17.154 144.739 15.516 144.739 13.318C144.739 11.106 143.143 9.468 140.903 9.468C138.663 9.468 137.067 11.106 137.067 13.318C137.067 15.516 138.663 17.154 140.903 17.154ZM140.917 16.09C139.349 16.09 138.271 14.928 138.271 13.318C138.271 11.694 139.349 10.532 140.917 10.532C142.485 10.532 143.549 11.694 143.549 13.318C143.549 14.928 142.471 16.09 140.917 16.09ZM150.801 8.866C147.847 8.866 145.845 10.966 145.845 13.724C145.845 16.566 147.791 18.54 150.801 18.54C152.075 18.54 153.139 18.092 153.741 17.406L153.209 16.804C152.747 17.406 151.851 17.756 150.801 17.756C148.323 17.756 146.699 16.146 146.699 13.724C146.699 11.442 148.393 9.65 150.801 9.65C153.237 9.65 154.875 11.4 154.875 13.64C154.875 14.718 154.413 15.278 153.727 15.278C153.307 15.278 153.083 14.984 153.083 14.536V11.47H152.355V12.366C151.991 11.736 151.361 11.33 150.521 11.33C149.191 11.33 148.267 12.394 148.267 13.752C148.267 15.096 149.219 16.16 150.521 16.16C151.431 16.16 152.047 15.74 152.383 15.096C152.537 15.712 153.027 16.076 153.741 16.076C154.847 16.076 155.715 15.068 155.715 13.64C155.715 10.924 153.755 8.866 150.801 8.866ZM150.661 15.334C149.793 15.334 149.163 14.648 149.163 13.752C149.163 12.842 149.821 12.156 150.661 12.156C151.557 12.156 152.173 12.828 152.173 13.752C152.173 14.662 151.557 15.334 150.661 15.334ZM157.312 17H158.502V6.766H157.312V17ZM163.845 17.154C166.085 17.154 167.681 15.516 167.681 13.318C167.681 11.106 166.085 9.468 163.845 9.468C161.605 9.468 160.009 11.106 160.009 13.318C160.009 15.516 161.605 17.154 163.845 17.154ZM163.859 16.09C162.291 16.09 161.213 14.928 161.213 13.318C161.213 11.694 162.291 10.532 163.859 10.532C165.427 10.532 166.491 11.694 166.491 13.318C166.491 14.928 165.413 16.09 163.859 16.09ZM170.341 10.7V9.622H169.221V17H170.411V12.548C170.411 11.498 171.349 10.588 172.693 10.574V9.468C171.657 9.468 170.817 10.014 170.341 10.7ZM174.254 13.752H180.386C180.4 13.612 180.414 13.36 180.414 13.15C180.414 11.204 179 9.454 176.774 9.454C174.688 9.454 173.05 11.176 173.05 13.318C173.05 15.516 174.59 17.168 176.858 17.168C178.608 17.168 179.63 16.412 180.176 15.362L179.14 14.732C178.776 15.586 178.104 16.048 176.9 16.048C175.542 16.048 174.464 15.124 174.254 13.752ZM174.268 12.716C174.492 11.316 175.57 10.49 176.816 10.49C178.048 10.49 179.014 11.33 179.196 12.716H174.268ZM190.575 9.468C189.245 9.468 188.335 10.168 187.957 10.966C187.551 10.014 186.711 9.468 185.437 9.468C184.303 9.468 183.449 10.028 183.001 10.714V9.622H181.881V17H183.071V12.352C183.085 11.498 183.869 10.532 185.101 10.532C186.333 10.518 187.075 11.4 187.075 12.66V17H188.265V12.352C188.293 11.498 189.063 10.532 190.309 10.532C191.541 10.518 192.283 11.414 192.283 12.66V17H193.473V12.45C193.473 10.728 192.423 9.468 190.575 9.468ZM195.949 8.264C196.481 8.264 196.887 7.886 196.887 7.354C196.887 6.808 196.481 6.416 195.949 6.416C195.417 6.416 195.011 6.808 195.011 7.354C195.011 7.886 195.417 8.264 195.949 8.264ZM195.361 17H196.551V9.622H195.361V17ZM202.411 9.468C201.193 9.468 200.213 10.042 199.625 10.98V9.622H198.519V19.506H199.709V15.796C200.297 16.65 201.235 17.154 202.383 17.154C204.483 17.154 206.023 15.516 206.023 13.318C206.023 11.12 204.511 9.468 202.411 9.468ZM202.257 16.104C200.717 16.104 199.653 14.956 199.653 13.318C199.653 11.68 200.731 10.518 202.257 10.518C203.741 10.518 204.833 11.708 204.833 13.318C204.833 14.914 203.727 16.104 202.257 16.104ZM209.909 17.154C211.659 17.154 212.821 16.342 212.821 14.942C212.821 12.24 208.551 13.108 208.551 11.456C208.551 10.854 209.041 10.476 209.895 10.476C210.637 10.476 211.169 10.784 211.407 11.442L212.541 10.994C212.219 10.014 211.253 9.468 209.909 9.468C208.285 9.468 207.235 10.252 207.235 11.526C207.235 14.06 211.477 13.262 211.477 15.04C211.477 15.726 210.875 16.118 209.951 16.118C208.929 16.118 208.243 15.67 208.005 14.914L206.871 15.362C207.263 16.538 208.383 17.154 209.909 17.154ZM219.465 9.622V14.256C219.451 15.194 218.611 16.09 217.365 16.09C216.105 16.104 215.307 15.278 215.307 14.032V9.622H214.117V14.172C214.117 15.922 215.167 17.154 217.057 17.154C218.149 17.154 219.031 16.636 219.521 15.95V17H220.655V9.622H219.465ZM231.317 9.468C229.987 9.468 229.077 10.168 228.699 10.966C228.293 10.014 227.453 9.468 226.179 9.468C225.045 9.468 224.191 10.028 223.743 10.714V9.622H222.623V17H223.813V12.352C223.827 11.498 224.611 10.532 225.843 10.532C227.075 10.518 227.817 11.4 227.817 12.66V17H229.007V12.352C229.035 11.498 229.805 10.532 231.051 10.532C232.283 10.518 233.025 11.414 233.025 12.66V17H234.215V12.45C234.215 10.728 233.165 9.468 231.317 9.468ZM236.551 17.126C237.013 17.126 237.363 16.79 237.363 16.328C237.363 15.852 237.013 15.516 236.551 15.516C236.089 15.516 235.753 15.852 235.753 16.328C235.753 16.79 236.089 17.126 236.551 17.126ZM242.101 17.154C243.893 17.154 245.111 16.076 245.489 14.872L244.425 14.438C244.117 15.46 243.263 16.09 242.129 16.09C240.631 16.09 239.511 14.956 239.511 13.318C239.511 11.68 240.631 10.546 242.115 10.546C243.235 10.546 244.075 11.176 244.383 12.198L245.447 11.778C245.069 10.546 243.865 9.482 242.087 9.482C239.903 9.482 238.307 11.134 238.307 13.318C238.307 15.53 239.917 17.154 242.101 17.154ZM250.182 17.154C252.422 17.154 254.018 15.516 254.018 13.318C254.018 11.106 252.422 9.468 250.182 9.468C247.942 9.468 246.346 11.106 246.346 13.318C246.346 15.516 247.942 17.154 250.182 17.154ZM250.196 16.09C248.628 16.09 247.55 14.928 247.55 13.318C247.55 11.694 248.628 10.532 250.196 10.532C251.764 10.532 252.828 11.694 252.828 13.318C252.828 14.928 251.75 16.09 250.196 16.09ZM264.252 9.468C262.922 9.468 262.012 10.168 261.634 10.966C261.228 10.014 260.388 9.468 259.114 9.468C257.98 9.468 257.126 10.028 256.678 10.714V9.622H255.558V17H256.748V12.352C256.762 11.498 257.546 10.532 258.778 10.532C260.01 10.518 260.752 11.4 260.752 12.66V17H261.942V12.352C261.97 11.498 262.74 10.532 263.986 10.532C265.218 10.518 265.96 11.414 265.96 12.66V17H267.15V12.45C267.15 10.728 266.1 9.468 264.252 9.468ZM269.487 17.126C269.949 17.126 270.299 16.79 270.299 16.328C270.299 15.852 269.949 15.516 269.487 15.516C269.025 15.516 268.689 15.852 268.689 16.328C268.689 16.79 269.025 17.126 269.487 17.126ZM275.816 9.468C274.654 9.468 273.702 9.986 273.114 10.84V6.766H271.924V17H273.03V15.656C273.618 16.594 274.584 17.154 275.788 17.154C277.888 17.154 279.428 15.516 279.428 13.304C279.428 11.12 277.916 9.468 275.816 9.468ZM275.662 16.104C274.136 16.104 273.058 14.956 273.058 13.304C273.058 11.666 274.122 10.518 275.662 10.518C277.132 10.518 278.238 11.722 278.238 13.304C278.238 14.914 277.146 16.104 275.662 16.104ZM282.094 10.7V9.622H280.974V17H282.164V12.548C282.164 11.498 283.102 10.588 284.446 10.574V9.468C283.41 9.468 282.57 10.014 282.094 10.7Z" fill="#5E49FF"/>
<a href="mailto:rafael@verzel.com.br">
<rect fill="black" fill-opacity="0" y="2.305" width="252.67" height="19.39"/>
</a>
<path d="M18.125 5H1.875C0.820312 5 0 5.85938 0 6.875V18.125C0 19.1797 0.820312 20 1.875 20H18.125C19.1406 20 20 19.1797 20 18.125V6.875C20 5.85938 19.1406 5 18.125 5ZM1.875 6.25H18.125C18.4375 6.25 18.75 6.5625 18.75 6.875V8.51562C17.8906 9.21875 16.6406 10.2344 12.8516 13.2422C12.1875 13.7891 10.8984 15.0391 10 15C9.0625 15.0391 7.77344 13.7891 7.10938 13.2422C3.32031 10.2344 2.07031 9.21875 1.25 8.51562V6.875C1.25 6.5625 1.52344 6.25 1.875 6.25ZM18.125 18.75H1.875C1.52344 18.75 1.25 18.4766 1.25 18.125V10.1172C2.10938 10.8594 3.51562 11.9922 6.32812 14.2188C7.14844 14.8828 8.55469 16.2891 10 16.25C11.4062 16.2891 12.8125 14.8828 13.6328 14.2188C16.4453 11.9922 17.8516 10.8594 18.75 10.1172V18.125C18.75 18.4766 18.4375 18.75 18.125 18.75Z" fill="#5E49FF"/>
</svg>
